<svg width="3000" height="1600" viewBox="0 0 3000 1600" fill="none" xmlns="http://www.w3.org/2000/svg">
<rect width="100" height="100" fill="#622C12"/>
<rect width="100" height="100" transform="translate(100)" fill="#6B2815"/>
<rect width="100" height="100" transform="translate(200)" fill="#782118"/>
<rect width="100" height="100" transform="translate(300)" fill="#851F1B"/>
<rect width="100" height="100" transform="translate(400)" fill="#991D1D"/>
<rect width="100" height="100" transform="translate(500)" fill="#9F1C22"/>
<rect width="100" height="100" transform="translate(600)" fill="#AE1F23"/>
<rect width="100" height="100" transform="translate(700)" fill="#C62127"/>
<rect width="100" height="100" transform="translate(800)" fill="#DF2028"/>
<rect width="100" height="100" transform="translate(900)" fill="#EC2127"/>
<rect width="100" height="100" transform="translate(1000)" fill="#EE2128"/>
<rect width="100" height="100" transform="translate(1100)" fill="#ED2027"/>
<rect width="100" height="100" transform="translate(1200)" fill="#ED1E32"/>
<rect width="100" height="100" transform="translate(1300)" fill="#ED1B3C"/>
<rect width="100" height="100" transform="translate(1400)" fill="#EB1F48"/>
<rect width="100" height="100" transform="translate(1500)" fill="#E71A53"/>
<rect width="100" height="100" transform="translate(1600)" fill="#E31664"/>
<rect width="100" height="100" transform="translate(1700)" fill="#E11075"/>
<rect width="100" height="100" transform="translate(1800)" fill="#D80E86"/>
<rect width="100" height="100" transform="translate(1900)" fill="#D21A8C"/>
<rect width="100" height="100" transform="translate(2000)" fill="#CA2993"/>
<rect width="100" height="100" transform="translate(2100)" fill="#BC3093"/>
<rect width="100" height="100" transform="translate(2200)" fill="#B43493"/>
<rect width="100" height="100" transform="translate(2300)" fill="#A83998"/>
<rect width="100" height="100" transform="translate(2400)" fill="#9F3894"/>
<rect width="100" height="100" transform="translate(2500)" fill="#943998"/>
<rect width="100" height="100" transform="translate(2600)" fill="#8C3D98"/>
<rect width="100" height="100" transform="translate(2700)" fill="#873E98"/>
<rect width="100" height="100" transform="translate(2800)" fill="#7D3E99"/>
<rect width="100" height="100" transform="translate(2900)" fill="#74429B"/>
<rect width="100" height="100" transform="translate(0 100)" fill="#894A21"/>
<rect width="100" height="100" transform="translate(100 100)" fill="#954723"/>
<rect width="100" height="100" transform="translate(200 100)" fill="#9E3F21"/>
<rect width="100" height="100" transform="translate(300 100)" fill="#AE4027"/>
<rect width="100" height="100" transform="translate(400 100)" fill="#BB3A23"/>
<rect width="100" height="100" transform="translate(500 100)" fill="#C72E29"/>
<rect width="100" height="100" transform="translate(600 100)" fill="#E5232A"/>
<rect width="100" height="100" transform="translate(700 100)" fill="#E72229"/>
<rect width="100" height="100" transform="translate(800 100)" fill="#EC2627"/>
<rect width="100" height="100" transform="translate(900 100)" fill="#EE2A2E"/>
<rect width="100" height="100" transform="translate(1000 100)" fill="#EE2C35"/>
<rect width="100" height="100" transform="translate(1100 100)" fill="#ED283A"/>
<rect width="100" height="100" transform="translate(1200 100)" fill="#ED2146"/>
<rect width="100" height="100" transform="translate(1300 100)" fill="#EE2350"/>
<rect width="100" height="100" transform="translate(1400 100)" fill="#EE2060"/>
<rect width="100" height="100" transform="translate(1500 100)" fill="#ED196E"/>
<rect width="100" height="100" transform="translate(1600 100)" fill="#ED1578"/>
<rect width="100" height="100" transform="translate(1700 100)" fill="#E6148F"/>
<rect width="100" height="100" transform="translate(1800 100)" fill="#DB2B90"/>
<rect width="100" height="100" transform="translate(1900 100)" fill="#CF3895"/>
<rect width="100" height="100" transform="translate(2000 100)" fill="#C03F99"/>
<rect width="100" height="100" transform="translate(2100 100)" fill="#B33E99"/>
<rect width="100" height="100" transform="translate(2200 100)" fill="#A93C97"/>
<rect width="100" height="100" transform="translate(2300 100)" fill="#9F3F99"/>
<rect width="100" height="100" transform="translate(2400 100)" fill="#973D97"/>
<rect width="100" height="100" transform="translate(2500 100)" fill="#8E3F9A"/>
<rect width="100" height="100" transform="translate(2600 100)" fill="#873D9C"/>
<rect width="100" height="100" transform="translate(2700 100)" fill="#7D3E99"/>
<rect width="100" height="100" transform="translate(2800 100)" fill="#713F98"/>
<rect width="100" height="100" transform="translate(2900 100)" fill="#693C97"/>
<rect width="100" height="100" transform="translate(0 200)" fill="#A76229"/>
<rect width="100" height="100" transform="translate(100 200)" fill="#AC5B26"/>
<rect width="100" height="100" transform="translate(200 200)" fill="#BD5C29"/>
<rect width="100" height="100" transform="translate(300 200)" fill="#C44E28"/>
<rect width="100" height="100" transform="translate(400 200)" fill="#CE4928"/>
<rect width="100" height="100" transform="translate(500 200)" fill="#D64028"/>
<rect width="100" height="100" transform="translate(600 200)" fill="#E33928"/>
<rect width="100" height="100" transform="translate(700 200)" fill="#EA3628"/>
<rect width="100" height="100" transform="translate(800 200)" fill="#EF392E"/>
<rect width="100" height="100" transform="translate(900 200)" fill="#EF3F40"/>
<rect width="100" height="100" transform="translate(1000 200)" fill="#EF3F4C"/>
<rect width="100" height="100" transform="translate(1100 200)" fill="#EF3D53"/>
<rect width="100" height="100" transform="translate(1200 200)" fill="#EF3B5E"/>
<rect width="100" height="100" transform="translate(1300 200)" fill="#EE3466"/>
<rect width="100" height="100" transform="translate(1400 200)" fill="#F0327C"/>
<rect width="100" height="100" transform="translate(1500 200)" fill="#EF2F88"/>
<rect width="100" height="100" transform="translate(1600 200)" fill="#E9348E"/>
<rect width="100" height="100" transform="translate(1700 200)" fill="#DB469A"/>
<rect width="100" height="100" transform="translate(1800 200)" fill="#CF4C9C"/>
<rect width="100" height="100" transform="translate(1900 200)" fill="#BC4B9B"/>
<rect width="100" height="100" transform="translate(2000 200)" fill="#B64B9D"/>
<rect width="100" height="100" transform="translate(2100 200)" fill="#A7489C"/>
<rect width="100" height="100" transform="translate(2200 200)" fill="#9F469A"/>
<rect width="100" height="100" transform="translate(2300 200)" fill="#974399"/>
<rect width="100" height="100" transform="translate(2400 200)" fill="#8C439C"/>
<rect width="100" height="100" transform="translate(2500 200)" fill="#873E98"/>
<rect width="100" height="100" transform="translate(2600 200)" fill="#7A3E98"/>
<rect width="100" height="100" transform="translate(2700 200)" fill="#743D98"/>
<rect width="100" height="100" transform="translate(2800 200)" fill="#6B3998"/>
<rect width="100" height="100" transform="translate(2900 200)" fill="#5D3192"/>
<rect width="100" height="100" transform="translate(0 300)" fill="#CB802B"/>
<rect width="100" height="100" transform="translate(100 300)" fill="#D4832C"/>
<rect width="100" height="100" transform="translate(200 300)" fill="#DC7727"/>
<rect width="100" height="100" transform="translate(300 300)" fill="#E97927"/>
<rect width="100" height="100" transform="translate(400 300)" fill="#E66926"/>
<rect width="100" height="100" transform="translate(500 300)" fill="#E95E25"/>
<rect width="100" height="100" transform="translate(600 300)" fill="#F46028"/>
<rect width="100" height="100" transform="translate(700 300)" fill="#F15732"/>
<rect width="100" height="100" transform="translate(800 300)" fill="#ED533F"/>
<rect width="100" height="100" transform="translate(900 300)" fill="#F25954"/>
<rect width="100" height="100" transform="translate(1000 300)" fill="#F35D66"/>
<rect width="100" height="100" transform="translate(1100 300)" fill="#F05E6B"/>
<rect width="100" height="100" transform="translate(1200 300)" fill="#F05871"/>
<rect width="100" height="100" transform="translate(1300 300)" fill="#F05581"/>
<rect width="100" height="100" transform="translate(1400 300)" fill="#EF518C"/>
<rect width="100" height="100" transform="translate(1500 300)" fill="#EE509B"/>
<rect width="100" height="100" transform="translate(1600 300)" fill="#DE56A0"/>
<rect width="100" height="100" transform="translate(1700 300)" fill="#CD57A1"/>
<rect width="100" height="100" transform="translate(1800 300)" fill="#BE5EA6"/>
<rect width="100" height="100" transform="translate(1900 300)" fill="#B658A2"/>
<rect width="100" height="100" transform="translate(2000 300)" fill="#A754A4"/>
<rect width="100" height="100" transform="translate(2100 300)" fill="#9B4E9E"/>
<rect width="100" height="100" transform="translate(2200 300)" fill="#944C9E"/>
<rect width="100" height="100" transform="translate(2300 300)" fill="#8B4A9C"/>
<rect width="100" height="100" transform="translate(2400 300)" fill="#83459A"/>
<rect width="100" height="100" transform="translate(2500 300)" fill="#7B439C"/>
<rect width="100" height="100" transform="translate(2600 300)" fill="#703F9B"/>
<rect width="100" height="100" transform="translate(2700 300)" fill="#663996"/>
<rect width="100" height="100" transform="translate(2800 300)" fill="#593494"/>
<rect width="100" height="100" transform="translate(2900 300)" fill="#45308B"/>
<rect width="100" height="100" transform="translate(0 400)" fill="#E99B25"/>
<rect width="100" height="100" transform="translate(100 400)" fill="#F19820"/>
<rect width="100" height="100" transform="translate(200 400)" fill="#F99220"/>
<rect width="100" height="100" transform="translate(300 400)" fill="#F78D20"/>
<rect width="100" height="100" transform="translate(400 400)" fill="#F78525"/>
<rect width="100" height="100" transform="translate(500 400)" fill="#F4782E"/>
<rect width="100" height="100" transform="translate(600 400)" fill="#F4793E"/>
<rect width="100" height="100" transform="translate(700 400)" fill="#F36E44"/>
<rect width="100" height="100" transform="translate(800 400)" fill="#F57055"/>
<rect width="100" height="100" transform="translate(900 400)" fill="#F27768"/>
<rect width="100" height="100" transform="translate(1000 400)" fill="#F47775"/>
<rect width="100" height="100" transform="translate(1100 400)" fill="#F4767F"/>
<rect width="100" height="100" transform="translate(1200 400)" fill="#F2778C"/>
<rect width="100" height="100" transform="translate(1300 400)" fill="#F37193"/>
<rect width="100" height="100" transform="translate(1400 400)" fill="#EF68A2"/>
<rect width="100" height="100" transform="translate(1500 400)" fill="#E670AD"/>
<rect width="100" height="100" transform="translate(1600 400)" fill="#D573B0"/>
<rect width="100" height="100" transform="translate(1700 400)" fill="#C771B0"/>
<rect width="100" height="100" transform="translate(1800 400)" fill="#BB71AE"/>
<rect width="100" height="100" transform="translate(1900 400)" fill="#AF68AE"/>
<rect width="100" height="100" transform="translate(2000 400)" fill="#A060AA"/>
<rect width="100" height="100" transform="translate(2100 400)" fill="#945AA4"/>
<rect width="100" height="100" transform="translate(2200 400)" fill="#9055A5"/>
<rect width="100" height="100" transform="translate(2300 400)" fill="#8651A3"/>
<rect width="100" height="100" transform="translate(2400 400)" fill="#7A4A9C"/>
<rect width="100" height="100" transform="translate(2500 400)" fill="#6D4898"/>
<rect width="100" height="100" transform="translate(2600 400)" fill="#633F99"/>
<rect width="100" height="100" transform="translate(2700 400)" fill="#593494"/>
<rect width="100" height="100" transform="translate(2800 400)" fill="#4B3192"/>
<rect width="100" height="100" transform="translate(2900 400)" fill="#342E84"/>
<rect width="100" height="100" transform="translate(0 500)" fill="#FEB417"/>
<rect width="100" height="100" transform="translate(100 500)" fill="#FDB020"/>
<rect width="100" height="100" transform="translate(200 500)" fill="#F9AB2B"/>
<rect width="100" height="100" transform="translate(300 500)" fill="#FCAA3A"/>
<rect width="100" height="100" transform="translate(400 500)" fill="#FCA845"/>
<rect width="100" height="100" transform="translate(500 500)" fill="#FAA34E"/>
<rect width="100" height="100" transform="translate(600 500)" fill="#F59855"/>
<rect width="100" height="100" transform="translate(700 500)" fill="#F88E61"/>
<rect width="100" height="100" transform="translate(800 500)" fill="#F28963"/>
<rect width="100" height="100" transform="translate(900 500)" fill="#F48A74"/>
<rect width="100" height="100" transform="translate(1000 500)" fill="#F78F86"/>
<rect width="100" height="100" transform="translate(1100 500)" fill="#F58E91"/>
<rect width="100" height="100" transform="translate(1200 500)" fill="#F58F9D"/>
<rect width="100" height="100" transform="translate(1300 500)" fill="#F28CA2"/>
<rect width="100" height="100" transform="translate(1400 500)" fill="#F288B6"/>
<rect width="100" height="100" transform="translate(1500 500)" fill="#E28CBB"/>
<rect width="100" height="100" transform="translate(1600 500)" fill="#D48BC0"/>
<rect width="100" height="100" transform="translate(1700 500)" fill="#C68ABD"/>
<rect width="100" height="100" transform="translate(1800 500)" fill="#B982B9"/>
<rect width="100" height="100" transform="translate(1900 500)" fill="#AB79B8"/>
<rect width="100" height="100" transform="translate(2000 500)" fill="#9C73B5"/>
<rect width="100" height="100" transform="translate(2100 500)" fill="#9168AC"/>
<rect width="100" height="100" transform="translate(2200 500)" fill="#8860A9"/>
<rect width="100" height="100" transform="translate(2300 500)" fill="#7C5AA6"/>
<rect width="100" height="100" transform="translate(2400 500)" fill="#7451A3"/>
<rect width="100" height="100" transform="translate(2500 500)" fill="#644B9E"/>
<rect width="100" height="100" transform="translate(2600 500)" fill="#5B429D"/>
<rect width="100" height="100" transform="translate(2700 500)" fill="#4D3395"/>
<rect width="100" height="100" transform="translate(2800 500)" fill="#38328C"/>
<rect width="100" height="100" transform="translate(2900 500)" fill="#302C79"/>
<rect width="100" height="100" transform="translate(0 600)" fill="#FCBF17"/>
<rect width="100" height="100" transform="translate(100 600)" fill="#FFBF2A"/>
<rect width="100" height="100" transform="translate(200 600)" fill="#FFB82C"/>
<rect width="100" height="100" transform="translate(300 600)" fill="#FDB534"/>
<rect width="100" height="100" transform="translate(400 600)" fill="#FDBA5F"/>
<rect width="100" height="100" transform="translate(500 600)" fill="#FAA957"/>
<rect width="100" height="100" transform="translate(600 600)" fill="#FBAB66"/>
<rect width="100" height="100" transform="translate(700 600)" fill="#F8A26F"/>
<rect width="100" height="100" transform="translate(800 600)" fill="#F8A37C"/>
<rect width="100" height="100" transform="translate(900 600)" fill="#FAA086"/>
<rect width="100" height="100" transform="translate(1000 600)" fill="#F79E96"/>
<rect width="100" height="100" transform="translate(1100 600)" fill="#F79D9C"/>
<rect width="100" height="100" transform="translate(1200 600)" fill="#F69CA6"/>
<rect width="100" height="100" transform="translate(1300 600)" fill="#F79BA9"/>
<rect width="100" height="100" transform="translate(1400 600)" fill="#F49CC4"/>
<rect width="100" height="100" transform="translate(1500 600)" fill="#E0A5CB"/>
<rect width="100" height="100" transform="translate(1600 600)" fill="#D1A7CD"/>
<rect width="100" height="100" transform="translate(1700 600)" fill="#D1AFD2"/>
<rect width="100" height="100" transform="translate(1800 600)" fill="#B699C7"/>
<rect width="100" height="100" transform="translate(1900 600)" fill="#A98AC3"/>
<rect width="100" height="100" transform="translate(2000 600)" fill="#9C82BF"/>
<rect width="100" height="100" transform="translate(2100 600)" fill="#8C77B7"/>
<rect width="100" height="100" transform="translate(2200 600)" fill="#806FB5"/>
<rect width="100" height="100" transform="translate(2300 600)" fill="#7464AE"/>
<rect width="100" height="100" transform="translate(2400 600)" fill="#695EAA"/>
<rect width="100" height="100" transform="translate(2500 600)" fill="#5B56A6"/>
<rect width="100" height="100" transform="translate(2600 600)" fill="#524CA2"/>
<rect width="100" height="100" transform="translate(2700 600)" fill="#43439B"/>
<rect width="100" height="100" transform="translate(2800 600)" fill="#333894"/>
<rect width="100" height="100" transform="translate(2900 600)" fill="#303184"/>
<rect width="100" height="100" transform="translate(0 700)" fill="#FDCF19"/>
<rect width="100" height="100" transform="translate(100 700)" fill="#FFCE2B"/>
<rect width="100" height="100" transform="translate(200 700)" fill="#FFC931"/>
<rect width="100" height="100" transform="translate(300 700)" fill="#FFC83F"/>
<rect width="100" height="100" transform="translate(400 700)" fill="#FFC650"/>
<rect width="100" height="100" transform="translate(500 700)" fill="#FDBF5A"/>
<rect width="100" height="100" transform="translate(600 700)" fill="#FDBA61"/>
<rect width="100" height="100" transform="translate(700 700)" fill="#FCB86A"/>
<rect width="100" height="100" transform="translate(800 700)" fill="#FBB47D"/>
<rect width="100" height="100" transform="translate(900 700)" fill="#FAAF85"/>
<rect width="100" height="100" transform="translate(1000 700)" fill="#FAAD8F"/>
<rect width="100" height="100" transform="translate(1100 700)" fill="#FAB19E"/>
<rect width="100" height="100" transform="translate(1200 700)" fill="#F5B6AD"/>
<rect width="100" height="100" transform="translate(1300 700)" fill="#F5B5B6"/>
<rect width="100" height="100" transform="translate(1400 700)" fill="#ECB5C8"/>
<rect width="100" height="100" transform="translate(1500 700)" fill="#D9B6D7"/>
<rect width="100" height="100" transform="translate(1600 700)" fill="#CDB7DB"/>
<rect width="100" height="100" transform="translate(1700 700)" fill="#CCBDDE"/>
<rect width="100" height="100" transform="translate(1800 700)" fill="#B5AAD5"/>
<rect width="100" height="100" transform="translate(1900 700)" fill="#A6A0D0"/>
<rect width="100" height="100" transform="translate(2000 700)" fill="#9895CA"/>
<rect width="100" height="100" transform="translate(2100 700)" fill="#8489C3"/>
<rect width="100" height="100" transform="translate(2200 700)" fill="#747CBA"/>
<rect width="100" height="100" transform="translate(2300 700)" fill="#6E77BA"/>
<rect width="100" height="100" transform="translate(2400 700)" fill="#576CB6"/>
<rect width="100" height="100" transform="translate(2500 700)" fill="#5463A8"/>
<rect width="100" height="100" transform="translate(2600 700)" fill="#495AA8"/>
<rect width="100" height="100" transform="translate(2700 700)" fill="#3E50A4"/>
<rect width="100" height="100" transform="translate(2800 700)" fill="#30469C"/>
<rect width="100" height="100" transform="translate(2900 700)" fill="#243C92"/>
<rect width="100" height="100" transform="translate(0 800)" fill="#FDDE11"/>
<rect width="100" height="100" transform="translate(100 800)" fill="#FCDB23"/>
<rect width="100" height="100" transform="translate(200 800)" fill="#FBDA35"/>
<rect width="100" height="100" transform="translate(300 800)" fill="#FBDA43"/>
<rect width="100" height="100" transform="translate(400 800)" fill="#FDDF4D"/>
<rect width="100" height="100" transform="translate(500 800)" fill="#FFDA5B"/>
<rect width="100" height="100" transform="translate(600 800)" fill="#FDDA62"/>
<rect width="100" height="100" transform="translate(700 800)" fill="#FFD672"/>
<rect width="100" height="100" transform="translate(800 800)" fill="#F6DA7C"/>
<rect width="100" height="100" transform="translate(900 800)" fill="#F1E090"/>
<rect width="100" height="100" transform="translate(1000 800)" fill="#EFDD9F"/>
<rect width="100" height="100" transform="translate(1100 800)" fill="#EAE2B4"/>
<rect width="100" height="100" transform="translate(1200 800)" fill="#E0DFC1"/>
<rect width="100" height="100" transform="translate(1300 800)" fill="#DEE3CD"/>
<rect width="100" height="100" transform="translate(1400 800)" fill="#D3E1D4"/>
<rect width="100" height="100" transform="translate(1500 800)" fill="#C7DEE6"/>
<rect width="100" height="100" transform="translate(1600 800)" fill="#C4D9F4"/>
<rect width="100" height="100" transform="translate(1700 800)" fill="#C4D9F6"/>
<rect width="100" height="100" transform="translate(1800 800)" fill="#A7C8EB"/>
<rect width="100" height="100" transform="translate(1900 800)" fill="#99B9E2"/>
<rect width="100" height="100" transform="translate(2000 800)" fill="#8CABDA"/>
<rect width="100" height="100" transform="translate(2100 800)" fill="#7AA2D5"/>
<rect width="100" height="100" transform="translate(2200 800)" fill="#7292CD"/>
<rect width="100" height="100" transform="translate(2300 800)" fill="#6586C3"/>
<rect width="100" height="100" transform="translate(2400 800)" fill="#527ABB"/>
<rect width="100" height="100" transform="translate(2500 800)" fill="#4C6DB4"/>
<rect width="100" height="100" transform="translate(2600 800)" fill="#4363B0"/>
<rect width="100" height="100" transform="translate(2700 800)" fill="#3C5BAB"/>
<rect width="100" height="100" transform="translate(2800 800)" fill="#3450A4"/>
<rect width="100" height="100" transform="translate(2900 800)" fill="#29489B"/>
<rect width="100" height="100" transform="translate(0 900)" fill="#F9EC22"/>
<rect width="100" height="100" transform="translate(100 900)" fill="#F9EB28"/>
<rect width="100" height="100" transform="translate(200 900)" fill="#FBEB36"/>
<rect width="100" height="100" transform="translate(300 900)" fill="#F8EF4A"/>
<rect width="100" height="100" transform="translate(400 900)" fill="#F8ED53"/>
<rect width="100" height="100" transform="translate(500 900)" fill="#FAEF62"/>
<rect width="100" height="100" transform="translate(600 900)" fill="#F6EF6D"/>
<rect width="100" height="100" transform="translate(700 900)" fill="#EFED86"/>
<rect width="100" height="100" transform="translate(800 900)" fill="#E7EB8D"/>
<rect width="100" height="100" transform="translate(900 900)" fill="#E2EA9F"/>
<rect width="100" height="100" transform="translate(1000 900)" fill="#DBEAB3"/>
<rect width="100" height="100" transform="translate(1100 900)" fill="#D5EAC3"/>
<rect width="100" height="100" transform="translate(1200 900)" fill="#D1EACD"/>
<rect width="100" height="100" transform="translate(1300 900)" fill="#D1E8D4"/>
<rect width="100" height="100" transform="translate(1400 900)" fill="#C9E5D6"/>
<rect width="100" height="100" transform="translate(1500 900)" fill="#BDE3E6"/>
<rect width="100" height="100" transform="translate(1600 900)" fill="#B8E2F0"/>
<rect width="100" height="100" transform="translate(1700 900)" fill="#B4E2F6"/>
<rect width="100" height="100" transform="translate(1800 900)" fill="#A2DBF6"/>
<rect width="100" height="100" transform="translate(1900 900)" fill="#89D3F6"/>
<rect width="100" height="100" transform="translate(2000 900)" fill="#7FC7EF"/>
<rect width="100" height="100" transform="translate(2100 900)" fill="#73B5E5"/>
<rect width="100" height="100" transform="translate(2200 900)" fill="#6CA5D9"/>
<rect width="100" height="100" transform="translate(2300 900)" fill="#5C97D1"/>
<rect width="100" height="100" transform="translate(2400 900)" fill="#508AC9"/>
<rect width="100" height="100" transform="translate(2500 900)" fill="#4B7CBF"/>
<rect width="100" height="100" transform="translate(2600 900)" fill="#436FBA"/>
<rect width="100" height="100" transform="translate(2700 900)" fill="#3A66B1"/>
<rect width="100" height="100" transform="translate(2800 900)" fill="#385BAD"/>
<rect width="100" height="100" transform="translate(2900 900)" fill="#3251A4"/>
<rect width="100" height="100" transform="translate(0 1000)" fill="#F3EA44"/>
<rect width="100" height="100" transform="translate(100 1000)" fill="#F5EC45"/>
<rect width="100" height="100" transform="translate(200 1000)" fill="#F5EB4B"/>
<rect width="100" height="100" transform="translate(300 1000)" fill="#F7EE55"/>
<rect width="100" height="100" transform="translate(400 1000)" fill="#F0EB5C"/>
<rect width="100" height="100" transform="translate(500 1000)" fill="#EBEA6B"/>
<rect width="100" height="100" transform="translate(600 1000)" fill="#E7E881"/>
<rect width="100" height="100" transform="translate(700 1000)" fill="#E0E587"/>
<rect width="100" height="100" transform="translate(800 1000)" fill="#D9E486"/>
<rect width="100" height="100" transform="translate(900 1000)" fill="#CAE08E"/>
<rect width="100" height="100" transform="translate(1000 1000)" fill="#C0DE98"/>
<rect width="100" height="100" transform="translate(1100 1000)" fill="#B8DBA5"/>
<rect width="100" height="100" transform="translate(1200 1000)" fill="#B4DBAF"/>
<rect width="100" height="100" transform="translate(1300 1000)" fill="#B1DAB8"/>
<rect width="100" height="100" transform="translate(1400 1000)" fill="#B0DDC6"/>
<rect width="100" height="100" transform="translate(1500 1000)" fill="#AEDDD7"/>
<rect width="100" height="100" transform="translate(1600 1000)" fill="#AEDBE0"/>
<rect width="100" height="100" transform="translate(1700 1000)" fill="#ABDCE3"/>
<rect width="100" height="100" transform="translate(1800 1000)" fill="#9AD9E8"/>
<rect width="100" height="100" transform="translate(1900 1000)" fill="#8AD4EF"/>
<rect width="100" height="100" transform="translate(2000 1000)" fill="#76D2F9"/>
<rect width="100" height="100" transform="translate(2100 1000)" fill="#69CAF5"/>
<rect width="100" height="100" transform="translate(2200 1000)" fill="#62BDEC"/>
<rect width="100" height="100" transform="translate(2300 1000)" fill="#5BA8DC"/>
<rect width="100" height="100" transform="translate(2400 1000)" fill="#549AD5"/>
<rect width="100" height="100" transform="translate(2500 1000)" fill="#4988CB"/>
<rect width="100" height="100" transform="translate(2600 1000)" fill="#407FC2"/>
<rect width="100" height="100" transform="translate(2700 1000)" fill="#3F71BA"/>
<rect width="100" height="100" transform="translate(2800 1000)" fill="#3A66B1"/>
<rect width="100" height="100" transform="translate(2900 1000)" fill="#355EAE"/>
<rect width="100" height="100" transform="translate(0 1100)" fill="#F2EA25"/>
<rect width="100" height="100" transform="translate(100 1100)" fill="#ECE82C"/>
<rect width="100" height="100" transform="translate(200 1100)" fill="#EEE937"/>
<rect width="100" height="100" transform="translate(300 1100)" fill="#E8E73F"/>
<rect width="100" height="100" transform="translate(400 1100)" fill="#E7E446"/>
<rect width="100" height="100" transform="translate(500 1100)" fill="#DEE352"/>
<rect width="100" height="100" transform="translate(600 1100)" fill="#D1E063"/>
<rect width="100" height="100" transform="translate(700 1100)" fill="#C1D969"/>
<rect width="100" height="100" transform="translate(800 1100)" fill="#B2D56D"/>
<rect width="100" height="100" transform="translate(900 1100)" fill="#A9D276"/>
<rect width="100" height="100" transform="translate(1000 1100)" fill="#9FD081"/>
<rect width="100" height="100" transform="translate(1100 1100)" fill="#97CE8A"/>
<rect width="100" height="100" transform="translate(1200 1100)" fill="#93CD9A"/>
<rect width="100" height="100" transform="translate(1300 1100)" fill="#8FCE9E"/>
<rect width="100" height="100" transform="translate(1400 1100)" fill="#91CFA8"/>
<rect width="100" height="100" transform="translate(1500 1100)" fill="#8AD1AF"/>
<rect width="100" height="100" transform="translate(1600 1100)" fill="#90D0C0"/>
<rect width="100" height="100" transform="translate(1700 1100)" fill="#8DD1C6"/>
<rect width="100" height="100" transform="translate(1800 1100)" fill="#84CFCB"/>
<rect width="100" height="100" transform="translate(1900 1100)" fill="#7BCED4"/>
<rect width="100" height="100" transform="translate(2000 1100)" fill="#6BCBDB"/>
<rect width="100" height="100" transform="translate(2100 1100)" fill="#58C7E2"/>
<rect width="100" height="100" transform="translate(2200 1100)" fill="#3CC8E8"/>
<rect width="100" height="100" transform="translate(2300 1100)" fill="#3CBAED"/>
<rect width="100" height="100" transform="translate(2400 1100)" fill="#3DA8DF"/>
<rect width="100" height="100" transform="translate(2500 1100)" fill="#3C9AD8"/>
<rect width="100" height="100" transform="translate(2600 1100)" fill="#4489CA"/>
<rect width="100" height="100" transform="translate(2700 1100)" fill="#3A79BE"/>
<rect width="100" height="100" transform="translate(2800 1100)" fill="#3F71BA"/>
<rect width="100" height="100" transform="translate(2900 1100)" fill="#3465B2"/>
<rect width="100" height="100" transform="translate(0 1200)" fill="#DDE429"/>
<rect width="100" height="100" transform="translate(100 1200)" fill="#DCDF2E"/>
<rect width="100" height="100" transform="translate(200 1200)" fill="#D6E12E"/>
<rect width="100" height="100" transform="translate(300 1200)" fill="#D3DE38"/>
<rect width="100" height="100" transform="translate(400 1200)" fill="#C8DB43"/>
<rect width="100" height="100" transform="translate(500 1200)" fill="#BCD546"/>
<rect width="100" height="100" transform="translate(600 1200)" fill="#AED24E"/>
<rect width="100" height="100" transform="translate(700 1200)" fill="#A0CD56"/>
<rect width="100" height="100" transform="translate(800 1200)" fill="#90C859"/>
<rect width="100" height="100" transform="translate(900 1200)" fill="#87C862"/>
<rect width="100" height="100" transform="translate(1000 1200)" fill="#78C368"/>
<rect width="100" height="100" transform="translate(1100 1200)" fill="#72C170"/>
<rect width="100" height="100" transform="translate(1200 1200)" fill="#71C17A"/>
<rect width="100" height="100" transform="translate(1300 1200)" fill="#6DC381"/>
<rect width="100" height="100" transform="translate(1400 1200)" fill="#6EC287"/>
<rect width="100" height="100" transform="translate(1500 1200)" fill="#72C597"/>
<rect width="100" height="100" transform="translate(1600 1200)" fill="#72C79E"/>
<rect width="100" height="100" transform="translate(1700 1200)" fill="#74C7A9"/>
<rect width="100" height="100" transform="translate(1800 1200)" fill="#75C8AA"/>
<rect width="100" height="100" transform="translate(1900 1200)" fill="#6DC6B4"/>
<rect width="100" height="100" transform="translate(2000 1200)" fill="#62C6BC"/>
<rect width="100" height="100" transform="translate(2100 1200)" fill="#55C2C5"/>
<rect width="100" height="100" transform="translate(2200 1200)" fill="#48C4D0"/>
<rect width="100" height="100" transform="translate(2300 1200)" fill="#30C1DC"/>
<rect width="100" height="100" transform="translate(2400 1200)" fill="#1CB9E4"/>
<rect width="100" height="100" transform="translate(2500 1200)" fill="#21AAE1"/>
<rect width="100" height="100" transform="translate(2600 1200)" fill="#2A9BD7"/>
<rect width="100" height="100" transform="translate(2700 1200)" fill="#398ECF"/>
<rect width="100" height="100" transform="translate(2800 1200)" fill="#3180C3"/>
<rect width="100" height="100" transform="translate(2900 1200)" fill="#2E72B9"/>
<rect width="100" height="100" transform="translate(0 1300)" fill="#C2D82E"/>
<rect width="100" height="100" transform="translate(100 1300)" fill="#BED432"/>
<rect width="100" height="100" transform="translate(200 1300)" fill="#B4D337"/>
<rect width="100" height="100" transform="translate(300 1300)" fill="#A9D038"/>
<rect width="100" height="100" transform="translate(400 1300)" fill="#A1CD3A"/>
<rect width="100" height="100" transform="translate(500 1300)" fill="#96CA41"/>
<rect width="100" height="100" transform="translate(600 1300)" fill="#81C244"/>
<rect width="100" height="100" transform="translate(700 1300)" fill="#7AC043"/>
<rect width="100" height="100" transform="translate(800 1300)" fill="#6DBC45"/>
<rect width="100" height="100" transform="translate(900 1300)" fill="#5EB447"/>
<rect width="100" height="100" transform="translate(1000 1300)" fill="#54B449"/>
<rect width="100" height="100" transform="translate(1100 1300)" fill="#4FB353"/>
<rect width="100" height="100" transform="translate(1200 1300)" fill="#48B759"/>
<rect width="100" height="100" transform="translate(1300 1300)" fill="#49B869"/>
<rect width="100" height="100" transform="translate(1400 1300)" fill="#53BA73"/>
<rect width="100" height="100" transform="translate(1500 1300)" fill="#58BC7C"/>
<rect width="100" height="100" transform="translate(1600 1300)" fill="#5ABE7E"/>
<rect width="100" height="100" transform="translate(1700 1300)" fill="#5DC08A"/>
<rect width="100" height="100" transform="translate(1800 1300)" fill="#61BF8B"/>
<rect width="100" height="100" transform="translate(1900 1300)" fill="#61C394"/>
<rect width="100" height="100" transform="translate(2000 1300)" fill="#5CC19F"/>
<rect width="100" height="100" transform="translate(2100 1300)" fill="#54BFAB"/>
<rect width="100" height="100" transform="translate(2200 1300)" fill="#49BFB3"/>
<rect width="100" height="100" transform="translate(2300 1300)" fill="#39BEC5"/>
<rect width="100" height="100" transform="translate(2400 1300)" fill="#2CC0CE"/>
<rect width="100" height="100" transform="translate(2500 1300)" fill="#11BAD9"/>
<rect width="100" height="100" transform="translate(2600 1300)" fill="#13AFDF"/>
<rect width="100" height="100" transform="translate(2700 1300)" fill="#1BA3DF"/>
<rect width="100" height="100" transform="translate(2800 1300)" fill="#2696D5"/>
<rect width="100" height="100" transform="translate(2900 1300)" fill="#2784C9"/>
<rect width="100" height="100" transform="translate(0 1400)" fill="#9FC33D"/>
<rect width="100" height="100" transform="translate(100 1400)" fill="#9BC53F"/>
<rect width="100" height="100" transform="translate(200 1400)" fill="#94C23E"/>
<rect width="100" height="100" transform="translate(300 1400)" fill="#8ABE40"/>
<rect width="100" height="100" transform="translate(400 1400)" fill="#81BB42"/>
<rect width="100" height="100" transform="translate(500 1400)" fill="#6BB345"/>
<rect width="100" height="100" transform="translate(600 1400)" fill="#61B045"/>
<rect width="100" height="100" transform="translate(700 1400)" fill="#57A849"/>
<rect width="100" height="100" transform="translate(800 1400)" fill="#4FA647"/>
<rect width="100" height="100" transform="translate(900 1400)" fill="#409E48"/>
<rect width="100" height="100" transform="translate(1000 1400)" fill="#359D48"/>
<rect width="100" height="100" transform="translate(1100 1400)" fill="#31A24A"/>
<rect width="100" height="100" transform="translate(1200 1400)" fill="#28AB4D"/>
<rect width="100" height="100" transform="translate(1300 1400)" fill="#2FB14D"/>
<rect width="100" height="100" transform="translate(1400 1400)" fill="#30B355"/>
<rect width="100" height="100" transform="translate(1500 1400)" fill="#37B65F"/>
<rect width="100" height="100" transform="translate(1600 1400)" fill="#42B864"/>
<rect width="100" height="100" transform="translate(1700 1400)" fill="#45B96E"/>
<rect width="100" height="100" transform="translate(1800 1400)" fill="#4CB975"/>
<rect width="100" height="100" transform="translate(1900 1400)" fill="#55BB79"/>
<rect width="100" height="100" transform="translate(2000 1400)" fill="#54BD85"/>
<rect width="100" height="100" transform="translate(2100 1400)" fill="#4EBD92"/>
<rect width="100" height="100" transform="translate(2200 1400)" fill="#47BEA0"/>
<rect width="100" height="100" transform="translate(2300 1400)" fill="#3EBCAA"/>
<rect width="100" height="100" transform="translate(2400 1400)" fill="#36BEB9"/>
<rect width="100" height="100" transform="translate(2500 1400)" fill="#2FBECA"/>
<rect width="100" height="100" transform="translate(2600 1400)" fill="#1FBED3"/>
<rect width="100" height="100" transform="translate(2700 1400)" fill="#0FB3D6"/>
<rect width="100" height="100" transform="translate(2800 1400)" fill="#0CA7DD"/>
<rect width="100" height="100" transform="translate(2900 1400)" fill="#189EDB"/>
<rect width="100" height="100" transform="translate(0 1500)" fill="#7AA440"/>
<rect width="100" height="100" transform="translate(100 1500)" fill="#78A842"/>
<rect width="100" height="100" transform="translate(200 1500)" fill="#6DA743"/>
<rect width="100" height="100" transform="translate(300 1500)" fill="#67A244"/>
<rect width="100" height="100" transform="translate(400 1500)" fill="#58A547"/>
<rect width="100" height="100" transform="translate(500 1500)" fill="#4C9F45"/>
<rect width="100" height="100" transform="translate(600 1500)" fill="#419945"/>
<rect width="100" height="100" transform="translate(700 1500)" fill="#399646"/>
<rect width="100" height="100" transform="translate(800 1500)" fill="#2A9245"/>
<rect width="100" height="100" transform="translate(900 1500)" fill="#228846"/>
<rect width="100" height="100" transform="translate(1000 1500)" fill="#198B45"/>
<rect width="100" height="100" transform="translate(1100 1500)" fill="#189249"/>
<rect width="100" height="100" transform="translate(1200 1500)" fill="#169B4A"/>
<rect width="100" height="100" transform="translate(1300 1500)" fill="#1CA24B"/>
<rect width="100" height="100" transform="translate(1400 1500)" fill="#1CAC4B"/>
<rect width="100" height="100" transform="translate(1500 1500)" fill="#26B14C"/>
<rect width="100" height="100" transform="translate(1600 1500)" fill="#31B44A"/>
<rect width="100" height="100" transform="translate(1700 1500)" fill="#34B759"/>
<rect width="100" height="100" transform="translate(1800 1500)" fill="#3AB660"/>
<rect width="100" height="100" transform="translate(1900 1500)" fill="#41B668"/>
<rect width="100" height="100" transform="translate(2000 1500)" fill="#43B770"/>
<rect width="100" height="100" transform="translate(2100 1500)" fill="#3BB880"/>
<rect width="100" height="100" transform="translate(2200 1500)" fill="#33B889"/>
<rect width="100" height="100" transform="translate(2300 1500)" fill="#2DB994"/>
<rect width="100" height="100" transform="translate(2400 1500)" fill="#25BAA4"/>
<rect width="100" height="100" transform="translate(2500 1500)" fill="#1DBBAD"/>
<rect width="100" height="100" transform="translate(2600 1500)" fill="#1CBCBA"/>
<rect width="100" height="100" transform="translate(2700 1500)" fill="#11BDC9"/>
<rect width="100" height="100" transform="translate(2800 1500)" fill="#0CB6D7"/>
<rect width="100" height="100" transform="translate(2900 1500)" fill="#0FB1E0"/>
</svg>
